<svg t="1640662266721" class="icon" viewBox="0 0 1024 1024" version="1.1" xmlns="http://www.w3.org/2000/svg" p-id="4135" width="200" height="200"><path d="M605.090909 11.636364h-186.181818C221.090909 11.636364 58.181818 174.545455 58.181818 372.363636v279.272728c0 197.818182 162.909091 360.727273 360.727273 360.727272h186.181818c197.818182 0 360.727273-162.909091 360.727273-360.727272V372.363636C965.818182 174.545455 802.909091 11.636364 605.090909 11.636364zM896 651.636364c0 109.381818-60.509091 204.8-148.945455 253.672727l-81.454545-95.418182c41.890909-39.563636 67.490909-95.418182 67.490909-158.254545 0-121.018182-100.072727-221.090909-221.090909-221.090909s-221.090909 100.072727-221.090909 221.090909 100.072727 221.090909 221.090909 221.090909c34.909091 0 67.490909-9.309091 97.745455-23.272728l69.818181 83.781819c-23.272727 6.981818-48.872727 9.309091-74.472727 9.309091h-186.181818c-160.581818 0-290.909091-130.327273-290.909091-290.909091V372.363636C128 211.781818 258.327273 81.454545 418.909091 81.454545h186.181818c160.581818 0 290.909091 130.327273 290.909091 290.909091v279.272728zM512 802.909091c-83.781818 0-151.272727-67.490909-151.272727-151.272727s67.490909-151.272727 151.272727-151.272728 151.272727 67.490909 151.272727 151.272728-67.490909 151.272727-151.272727 151.272727z" fill="#333333" p-id="4136"></path><path d="M349.090909 256h-23.272727c-18.618182 0-34.909091 16.290909-34.909091 34.909091S307.2 325.818182 325.818182 325.818182h23.272727c18.618182 0 34.909091-16.290909 34.909091-34.909091S367.709091 256 349.090909 256zM674.909091 256h-209.454546c-18.618182 0-34.909091 16.290909-34.90909 34.909091S446.836364 325.818182 465.454545 325.818182h209.454546c18.618182 0 34.909091-16.290909 34.909091-34.909091S693.527273 256 674.909091 256z" fill="#333333" p-id="4137"></path></svg>